<svg width="24" height="24" viewBox="0 0 24 24" fill="none" xmlns="http://www.w3.org/2000/svg">
<path d="M15.6182 11.1284C17.1539 10.0084 18.1539 8.19581 18.1539 6.15384C18.1539 2.76061 15.3933 0 12.0001 0C8.60685 0 5.84624 2.76061 5.84624 6.15384C5.84624 8.19581 6.84622 10.0084 8.38194 11.1284C4.56444 12.5892 1.84625 16.2905 1.84625 20.6154C1.84625 22.4817 3.36458 24 5.23086 24H18.7693C20.6356 24 22.1539 22.4817 22.1539 20.6154C22.1539 16.2905 19.4357 12.5892 15.6182 11.1284ZM7.69241 6.15384C7.69241 3.77859 9.62483 1.84617 12.0001 1.84617C14.3753 1.84617 16.3078 3.77859 16.3078 6.15384C16.3078 8.52909 14.3753 10.4616 12.0001 10.4616C9.62483 10.4616 7.69241 8.52909 7.69241 6.15384ZM18.7693 22.1538H5.23086C4.38257 22.1538 3.69242 21.4637 3.69242 20.6153C3.69242 16.0344 7.41918 12.3076 12.0001 12.3076C16.5811 12.3076 20.3078 16.0344 20.3078 20.6153C20.3078 21.4637 19.6176 22.1538 18.7693 22.1538Z" fill="#555555"/>
</svg>
