<svg width="46" height="21" viewBox="0 0 46 21" fill="none" xmlns="http://www.w3.org/2000/svg">
<path d="M0.971223 0H45.6475V15.4196C45.6475 18.181 43.4089 20.4196 40.6475 20.4196H0.971223V0Z" fill="#FF6868"/>
<path d="M8.23879 10.28H11.7308V11.264H8.23879V10.28ZM17.5342 9.608C18.0302 9.752 18.4102 10 18.6742 10.352C18.9382 10.704 19.0702 11.148 19.0702 11.684C19.0702 12.428 18.8062 13.016 18.2782 13.448C17.7582 13.872 17.0502 14.084 16.1542 14.084C15.5862 14.084 15.0422 13.996 14.5222 13.82C14.0102 13.636 13.5822 13.38 13.2382 13.052L13.6822 12.14C14.4502 12.764 15.2622 13.076 16.1182 13.076C17.2862 13.076 17.8702 12.584 17.8702 11.6C17.8702 11.12 17.7182 10.764 17.4142 10.532C17.1102 10.292 16.6502 10.172 16.0342 10.172H14.9902V9.164H15.8422C16.4342 9.164 16.8862 9.04 17.1982 8.792C17.5102 8.544 17.6662 8.184 17.6662 7.712C17.6662 7.28 17.5342 6.948 17.2702 6.716C17.0142 6.484 16.6502 6.368 16.1782 6.368C15.3782 6.368 14.5862 6.68 13.8022 7.304L13.3582 6.392C13.6942 6.072 14.1182 5.82 14.6302 5.636C15.1502 5.452 15.6862 5.36 16.2382 5.36C17.0382 5.36 17.6742 5.56 18.1462 5.96C18.6262 6.352 18.8662 6.884 18.8662 7.556C18.8662 8.044 18.7502 8.468 18.5182 8.828C18.2862 9.188 17.9582 9.448 17.5342 9.608ZM23.5655 14.096C22.5735 14.096 21.8175 13.724 21.2975 12.98C20.7775 12.236 20.5175 11.152 20.5175 9.728C20.5175 8.304 20.7775 7.22 21.2975 6.476C21.8175 5.732 22.5735 5.36 23.5655 5.36C24.5575 5.36 25.3135 5.732 25.8335 6.476C26.3535 7.212 26.6135 8.292 26.6135 9.716C26.6135 11.148 26.3535 12.236 25.8335 12.98C25.3135 13.724 24.5575 14.096 23.5655 14.096ZM23.5655 13.1C24.1815 13.1 24.6335 12.828 24.9215 12.284C25.2175 11.732 25.3655 10.876 25.3655 9.716C25.3655 8.556 25.2215 7.708 24.9335 7.172C24.6455 6.636 24.1895 6.368 23.5655 6.368C22.9495 6.368 22.4935 6.64 22.1975 7.184C21.9095 7.72 21.7655 8.564 21.7655 9.716C21.7655 10.876 21.9095 11.732 22.1975 12.284C22.4935 12.828 22.9495 13.1 23.5655 13.1ZM29.9568 10.568C29.3008 10.568 28.7848 10.348 28.4088 9.908C28.0408 9.46 27.8568 8.808 27.8568 7.952C27.8568 7.096 28.0408 6.448 28.4088 6.008C28.7848 5.568 29.3008 5.348 29.9568 5.348C30.6208 5.348 31.1368 5.568 31.5048 6.008C31.8808 6.448 32.0688 7.096 32.0688 7.952C32.0688 8.808 31.8808 9.46 31.5048 9.908C31.1368 10.348 30.6208 10.568 29.9568 10.568ZM29.8968 14L34.8408 5.456H35.9688L31.0248 14H29.8968ZM29.9568 9.752C30.3168 9.752 30.5808 9.612 30.7488 9.332C30.9168 9.044 31.0008 8.584 31.0008 7.952C31.0008 7.336 30.9168 6.888 30.7488 6.608C30.5808 6.32 30.3168 6.176 29.9568 6.176C29.6048 6.176 29.3448 6.32 29.1768 6.608C29.0088 6.888 28.9248 7.336 28.9248 7.952C28.9248 8.584 29.0088 9.044 29.1768 9.332C29.3448 9.612 29.6048 9.752 29.9568 9.752ZM35.9088 14.084C35.2448 14.084 34.7248 13.864 34.3488 13.424C33.9808 12.976 33.7968 12.324 33.7968 11.468C33.7968 10.612 33.9808 9.964 34.3488 9.524C34.7248 9.084 35.2448 8.864 35.9088 8.864C36.5728 8.864 37.0888 9.084 37.4568 9.524C37.8248 9.964 38.0088 10.612 38.0088 11.468C38.0088 12.324 37.8248 12.976 37.4568 13.424C37.0888 13.864 36.5728 14.084 35.9088 14.084ZM35.9088 13.256C36.2688 13.256 36.5328 13.116 36.7008 12.836C36.8688 12.548 36.9528 12.092 36.9528 11.468C36.9528 10.852 36.8648 10.404 36.6888 10.124C36.5208 9.836 36.2608 9.692 35.9088 9.692C35.5488 9.692 35.2848 9.836 35.1168 10.124C34.9488 10.404 34.8648 10.852 34.8648 11.468C34.8648 12.092 34.9488 12.548 35.1168 12.836C35.2848 13.116 35.5488 13.256 35.9088 13.256Z" fill="white"/>
</svg>
