<svg width="64" height="23" viewBox="0 0 64 23" fill="none" xmlns="http://www.w3.org/2000/svg">
<path d="M64 0H0V18C0 20.7614 2.23857 23 5 23H64V0Z" fill="#00B7F1"/>
<path d="M13.8472 10.5881C14.3832 10.5881 14.8512 10.7041 15.2512 10.9361C15.6592 11.1601 15.9712 11.4801 16.1872 11.8961C16.4112 12.3041 16.5232 12.7761 16.5232 13.3121C16.5232 13.8641 16.3992 14.3481 16.1512 14.7641C15.9112 15.1801 15.5632 15.5041 15.1072 15.7361C14.6512 15.9681 14.1192 16.0841 13.5112 16.0841C12.9832 16.0841 12.4632 15.9921 11.9512 15.8081C11.4392 15.6241 11.0152 15.3721 10.6792 15.0521L11.1112 14.1401C11.9032 14.7641 12.7072 15.0761 13.5232 15.0761C14.0912 15.0761 14.5312 14.9241 14.8432 14.6201C15.1632 14.3081 15.3232 13.8801 15.3232 13.3361C15.3232 12.8161 15.1632 12.3961 14.8432 12.0761C14.5312 11.7561 14.1112 11.5961 13.5832 11.5961C12.8152 11.5961 12.1992 11.8881 11.7352 12.4721H10.9312V7.45606H16.1632V8.45206H12.1552V11.1641C12.6112 10.7801 13.1752 10.5881 13.8472 10.5881ZM20.7305 16.0961C19.7385 16.0961 18.9825 15.7241 18.4625 14.9801C17.9425 14.2361 17.6825 13.1521 17.6825 11.7281C17.6825 10.3041 17.9425 9.22006 18.4625 8.47606C18.9825 7.73206 19.7385 7.36006 20.7305 7.36006C21.7225 7.36006 22.4785 7.73206 22.9985 8.47606C23.5185 9.21206 23.7785 10.2921 23.7785 11.7161C23.7785 13.1481 23.5185 14.2361 22.9985 14.9801C22.4785 15.7241 21.7225 16.0961 20.7305 16.0961ZM20.7305 15.1001C21.3465 15.1001 21.7985 14.8281 22.0865 14.2841C22.3825 13.7321 22.5305 12.8761 22.5305 11.7161C22.5305 10.5561 22.3865 9.70806 22.0985 9.17206C21.8105 8.63606 21.3545 8.36806 20.7305 8.36806C20.1145 8.36806 19.6585 8.64006 19.3625 9.18406C19.0745 9.72006 18.9305 10.5641 18.9305 11.7161C18.9305 12.8761 19.0745 13.7321 19.3625 14.2841C19.6585 14.8281 20.1145 15.1001 20.7305 15.1001ZM27.1218 12.5681C26.4658 12.5681 25.9498 12.3481 25.5738 11.9081C25.2058 11.4601 25.0218 10.8081 25.0218 9.95206C25.0218 9.09606 25.2058 8.44806 25.5738 8.00806C25.9498 7.56806 26.4658 7.34806 27.1218 7.34806C27.7858 7.34806 28.3018 7.56806 28.6698 8.00806C29.0458 8.44806 29.2338 9.09606 29.2338 9.95206C29.2338 10.8081 29.0458 11.4601 28.6698 11.9081C28.3018 12.3481 27.7858 12.5681 27.1218 12.5681ZM27.0618 16.0001L32.0058 7.45606H33.1338L28.1898 16.0001H27.0618ZM27.1218 11.7521C27.4818 11.7521 27.7458 11.6121 27.9138 11.3321C28.0818 11.0441 28.1658 10.5841 28.1658 9.95206C28.1658 9.33606 28.0818 8.88806 27.9138 8.60806C27.7458 8.32006 27.4818 8.17606 27.1218 8.17606C26.7698 8.17606 26.5098 8.32006 26.3418 8.60806C26.1738 8.88806 26.0898 9.33606 26.0898 9.95206C26.0898 10.5841 26.1738 11.0441 26.3418 11.3321C26.5098 11.6121 26.7698 11.7521 27.1218 11.7521ZM33.0738 16.0841C32.4098 16.0841 31.8898 15.8641 31.5138 15.4241C31.1458 14.9761 30.9618 14.3241 30.9618 13.4681C30.9618 12.6121 31.1458 11.9641 31.5138 11.5241C31.8898 11.0841 32.4098 10.8641 33.0738 10.8641C33.7378 10.8641 34.2538 11.0841 34.6218 11.5241C34.9898 11.9641 35.1738 12.6121 35.1738 13.4681C35.1738 14.3241 34.9898 14.9761 34.6218 15.4241C34.2538 15.8641 33.7378 16.0841 33.0738 16.0841ZM33.0738 15.2561C33.4338 15.2561 33.6978 15.1161 33.8658 14.8361C34.0338 14.5481 34.1178 14.0921 34.1178 13.4681C34.1178 12.8521 34.0298 12.4041 33.8538 12.1241C33.6858 11.8361 33.4258 11.6921 33.0738 11.6921C32.7138 11.6921 32.4498 11.8361 32.2818 12.1241C32.1138 12.4041 32.0298 12.8521 32.0298 13.4681C32.0298 14.0921 32.1138 14.5481 32.2818 14.8361C32.4498 15.1161 32.7138 15.2561 33.0738 15.2561ZM42.6605 16.0841C42.0685 16.0841 41.5485 15.9561 41.1005 15.7001C40.6525 15.4441 40.3045 15.0801 40.0565 14.6081C39.8165 14.1361 39.6965 13.5841 39.6965 12.9521C39.6965 12.3201 39.8165 11.7681 40.0565 11.2961C40.3045 10.8161 40.6525 10.4481 41.1005 10.1921C41.5485 9.93606 42.0685 9.80806 42.6605 9.80806C43.2445 9.80806 43.7605 9.93606 44.2085 10.1921C44.6565 10.4481 45.0005 10.8161 45.2405 11.2961C45.4885 11.7681 45.6125 12.3201 45.6125 12.9521C45.6125 13.5841 45.4885 14.1361 45.2405 14.6081C45.0005 15.0801 44.6565 15.4441 44.2085 15.7001C43.7605 15.9561 43.2445 16.0841 42.6605 16.0841ZM42.6485 15.1241C43.2085 15.1241 43.6365 14.9401 43.9325 14.5721C44.2285 14.2041 44.3765 13.6641 44.3765 12.9521C44.3765 12.2561 44.2245 11.7201 43.9205 11.3441C43.6245 10.9681 43.2045 10.7801 42.6605 10.7801C42.1085 10.7801 41.6805 10.9681 41.3765 11.3441C41.0725 11.7201 40.9205 12.2561 40.9205 12.9521C40.9205 13.6641 41.0685 14.2041 41.3645 14.5721C41.6685 14.9401 42.0965 15.1241 42.6485 15.1241ZM49.6577 8.14006C48.9937 8.14006 48.6617 8.52006 48.6617 9.28006V9.95206H50.0777V10.8881H48.6617V16.0001H47.4497V10.8881H46.2857V9.95206H47.4497V9.18406C47.4497 8.51206 47.6177 8.00006 47.9537 7.64806C48.2977 7.29606 48.7777 7.12006 49.3937 7.12006C49.7137 7.12006 50.0057 7.16006 50.2697 7.24006V8.23606C50.0537 8.17206 49.8497 8.14006 49.6577 8.14006ZM53.9139 8.14006C53.2499 8.14006 52.9179 8.52006 52.9179 9.28006V9.95206H54.3339V10.8881H52.9179V16.0001H51.7059V10.8881H50.5419V9.95206H51.7059V9.18406C51.7059 8.51206 51.8739 8.00006 52.2099 7.64806C52.5539 7.29606 53.0339 7.12006 53.6499 7.12006C53.9699 7.12006 54.2619 7.16006 54.5259 7.24006V8.23606C54.3099 8.17206 54.1059 8.14006 53.9139 8.14006Z" fill="white"/>
</svg>
