<svg width="64" height="23" viewBox="0 0 64 23" fill="none" xmlns="http://www.w3.org/2000/svg">
<path d="M64 0H0V18C0 20.7614 2.23857 23 5 23H64V0Z" fill="#00B7F1"/>
<path d="M16.6915 14.2241H15.4315V16.0001H14.2075V14.2241H10.3795V13.3001L14.4355 7.45606H15.4315V13.2281H16.6915V14.2241ZM14.2075 13.2281V9.46006L11.5915 13.2281H14.2075ZM20.7308 16.0961C19.7388 16.0961 18.9828 15.7241 18.4628 14.9801C17.9428 14.2361 17.6828 13.1521 17.6828 11.7281C17.6828 10.3041 17.9428 9.22006 18.4628 8.47606C18.9828 7.73206 19.7388 7.36006 20.7308 7.36006C21.7228 7.36006 22.4788 7.73206 22.9988 8.47606C23.5188 9.21206 23.7788 10.2921 23.7788 11.7161C23.7788 13.1481 23.5188 14.2361 22.9988 14.9801C22.4788 15.7241 21.7228 16.0961 20.7308 16.0961ZM20.7308 15.1001C21.3468 15.1001 21.7988 14.8281 22.0868 14.2841C22.3828 13.7321 22.5308 12.8761 22.5308 11.7161C22.5308 10.5561 22.3868 9.70806 22.0988 9.17206C21.8108 8.63606 21.3548 8.36806 20.7308 8.36806C20.1148 8.36806 19.6588 8.64006 19.3628 9.18406C19.0748 9.72006 18.9308 10.5641 18.9308 11.7161C18.9308 12.8761 19.0748 13.7321 19.3628 14.2841C19.6588 14.8281 20.1148 15.1001 20.7308 15.1001ZM27.1221 12.5681C26.4661 12.5681 25.9501 12.3481 25.5741 11.9081C25.2061 11.4601 25.0221 10.8081 25.0221 9.95206C25.0221 9.09606 25.2061 8.44806 25.5741 8.00806C25.9501 7.56806 26.4661 7.34806 27.1221 7.34806C27.7861 7.34806 28.3021 7.56806 28.6701 8.00806C29.0461 8.44806 29.2341 9.09606 29.2341 9.95206C29.2341 10.8081 29.0461 11.4601 28.6701 11.9081C28.3021 12.3481 27.7861 12.5681 27.1221 12.5681ZM27.0621 16.0001L32.0061 7.45606H33.1341L28.1901 16.0001H27.0621ZM27.1221 11.7521C27.4821 11.7521 27.7461 11.6121 27.9141 11.3321C28.0821 11.0441 28.1661 10.5841 28.1661 9.95206C28.1661 9.33606 28.0821 8.88806 27.9141 8.60806C27.7461 8.32006 27.4821 8.17606 27.1221 8.17606C26.7701 8.17606 26.5101 8.32006 26.3421 8.60806C26.1741 8.88806 26.0901 9.33606 26.0901 9.95206C26.0901 10.5841 26.1741 11.0441 26.3421 11.3321C26.5101 11.6121 26.7701 11.7521 27.1221 11.7521ZM33.0741 16.0841C32.4101 16.0841 31.8901 15.8641 31.5141 15.4241C31.1461 14.9761 30.9621 14.3241 30.9621 13.4681C30.9621 12.6121 31.1461 11.9641 31.5141 11.5241C31.8901 11.0841 32.4101 10.8641 33.0741 10.8641C33.7381 10.8641 34.2541 11.0841 34.6221 11.5241C34.9901 11.9641 35.1741 12.6121 35.1741 13.4681C35.1741 14.3241 34.9901 14.9761 34.6221 15.4241C34.2541 15.8641 33.7381 16.0841 33.0741 16.0841ZM33.0741 15.2561C33.4341 15.2561 33.6981 15.1161 33.8661 14.8361C34.0341 14.5481 34.1181 14.0921 34.1181 13.4681C34.1181 12.8521 34.0301 12.4041 33.8541 12.1241C33.6861 11.8361 33.4261 11.6921 33.0741 11.6921C32.7141 11.6921 32.4501 11.8361 32.2821 12.1241C32.1141 12.4041 32.0301 12.8521 32.0301 13.4681C32.0301 14.0921 32.1141 14.5481 32.2821 14.8361C32.4501 15.1161 32.7141 15.2561 33.0741 15.2561ZM42.6608 16.0841C42.0688 16.0841 41.5488 15.9561 41.1008 15.7001C40.6528 15.4441 40.3048 15.0801 40.0568 14.6081C39.8168 14.1361 39.6968 13.5841 39.6968 12.9521C39.6968 12.3201 39.8168 11.7681 40.0568 11.2961C40.3048 10.8161 40.6528 10.4481 41.1008 10.1921C41.5488 9.93606 42.0688 9.80806 42.6608 9.80806C43.2448 9.80806 43.7608 9.93606 44.2088 10.1921C44.6568 10.4481 45.0008 10.8161 45.2408 11.2961C45.4888 11.7681 45.6128 12.3201 45.6128 12.9521C45.6128 13.5841 45.4888 14.1361 45.2408 14.6081C45.0008 15.0801 44.6568 15.4441 44.2088 15.7001C43.7608 15.9561 43.2448 16.0841 42.6608 16.0841ZM42.6488 15.1241C43.2088 15.1241 43.6368 14.9401 43.9328 14.5721C44.2288 14.2041 44.3768 13.6641 44.3768 12.9521C44.3768 12.2561 44.2248 11.7201 43.9208 11.3441C43.6248 10.9681 43.2048 10.7801 42.6608 10.7801C42.1088 10.7801 41.6808 10.9681 41.3768 11.3441C41.0728 11.7201 40.9208 12.2561 40.9208 12.9521C40.9208 13.6641 41.0688 14.2041 41.3648 14.5721C41.6688 14.9401 42.0968 15.1241 42.6488 15.1241ZM49.658 8.14006C48.994 8.14006 48.662 8.52006 48.662 9.28006V9.95206H50.078V10.8881H48.662V16.0001H47.45V10.8881H46.286V9.95206H47.45V9.18406C47.45 8.51206 47.618 8.00006 47.954 7.64806C48.298 7.29606 48.778 7.12006 49.394 7.12006C49.714 7.12006 50.006 7.16006 50.27 7.24006V8.23606C50.054 8.17206 49.85 8.14006 49.658 8.14006ZM53.9141 8.14006C53.2501 8.14006 52.9181 8.52006 52.9181 9.28006V9.95206H54.3341V10.8881H52.9181V16.0001H51.7061V10.8881H50.5421V9.95206H51.7061V9.18406C51.7061 8.51206 51.8741 8.00006 52.2101 7.64806C52.5541 7.29606 53.0341 7.12006 53.6501 7.12006C53.9701 7.12006 54.2621 7.16006 54.5261 7.24006V8.23606C54.3101 8.17206 54.1061 8.14006 53.9141 8.14006Z" fill="white"/>
</svg>
