<svg width="24" height="24" viewBox="0 0 24 24" fill="none" xmlns="http://www.w3.org/2000/svg">
<path d="M11.777 21.1556L3.53618 12.9051C2.44325 11.8111 1.82919 10.3271 1.8291 8.77975C1.82901 7.23239 2.44289 5.74837 3.53569 4.65416C4.62849 3.55995 6.1107 2.94517 7.65625 2.94508C9.20179 2.94499 10.6841 3.55959 11.777 4.65367C12.8705 3.56083 14.3524 2.94703 15.8974 2.94703C17.4425 2.94703 18.9244 3.56083 20.0178 4.65367V4.65367C21.1089 5.74866 21.7217 7.23222 21.7217 8.77892C21.7217 10.3256 21.1089 11.8092 20.0178 12.9042L11.777 21.1556ZM7.6561 4.88996C6.88767 4.88993 6.13648 5.11806 5.49756 5.5455C4.85863 5.97293 4.36068 6.58047 4.06667 7.29128C3.77266 8.00208 3.6958 8.78421 3.84583 9.53874C3.99585 10.2933 4.36601 10.9863 4.90949 11.5302L11.777 18.4058L18.6445 11.5302C19.039 11.1441 19.3468 10.6783 19.5474 10.1638C19.7481 9.64935 19.837 9.09798 19.8082 8.54643C19.7795 7.99487 19.6337 7.45577 19.3806 6.965C19.1276 6.47423 18.773 6.04305 18.3406 5.70014C17.9081 5.35724 17.4077 5.11048 16.8726 4.97628C16.3374 4.84208 15.7799 4.82352 15.237 4.92184C14.6942 5.02015 14.1785 5.23309 13.7242 5.54649C13.27 5.85988 12.8876 6.26653 12.6025 6.73939L11.777 8.07347L10.9515 6.73939C10.6107 6.17059 10.1273 5.70086 9.54925 5.37679C8.9712 5.05272 8.31858 4.88556 7.6561 4.8919V4.88996Z" fill="#757575"/>
</svg>
