<svg width="33" height="33" viewBox="0 0 33 33" fill="none" xmlns="http://www.w3.org/2000/svg">
<circle cx="16.5" cy="16.3212" r="15.6" fill="url(#paint0_linear_2_1100)" fill-opacity="0.05" stroke="url(#paint1_linear_2_1100)"/>
<path d="M16.0744 14.0606C14.5962 14.0606 13.3899 15.2669 13.3899 16.7451C13.3899 18.2232 14.5962 19.4295 16.0744 19.4295C17.5525 19.4295 18.7588 18.2232 18.7588 16.7451C18.7588 15.2669 17.5525 14.0606 16.0744 14.0606ZM24.1258 16.7451C24.1258 15.6334 24.1358 14.5318 24.0734 13.4222C24.011 12.1333 23.717 10.9895 22.7745 10.047C21.83 9.10247 20.6881 8.81046 19.3992 8.74803C18.2876 8.6856 17.186 8.69567 16.0764 8.69567C14.9647 8.69567 13.8631 8.6856 12.7535 8.74803C11.4646 8.81046 10.3208 9.10448 9.37827 10.047C8.43377 10.9915 8.14176 12.1333 8.07933 13.4222C8.0169 14.5338 8.02697 15.6354 8.02697 16.7451C8.02697 17.8547 8.0169 18.9583 8.07933 20.0679C8.14176 21.3568 8.43578 22.5007 9.37827 23.4432C10.3228 24.3877 11.4646 24.6797 12.7535 24.7421C13.8651 24.8045 14.9667 24.7945 16.0764 24.7945C17.188 24.7945 18.2896 24.8045 19.3992 24.7421C20.6881 24.6797 21.832 24.3857 22.7745 23.4432C23.719 22.4987 24.011 21.3568 24.0734 20.0679C24.1379 18.9583 24.1258 17.8567 24.1258 16.7451ZM16.0744 20.8755C13.7886 20.8755 11.9439 19.0308 11.9439 16.7451C11.9439 14.4593 13.7886 12.6146 16.0744 12.6146C18.3601 12.6146 20.2048 14.4593 20.2048 16.7451C20.2048 19.0308 18.3601 20.8755 16.0744 20.8755ZM20.3739 13.4101C19.8403 13.4101 19.4093 12.9791 19.4093 12.4455C19.4093 11.9118 19.8403 11.4808 20.3739 11.4808C20.9076 11.4808 21.3386 11.9118 21.3386 12.4455C21.3387 12.5722 21.3139 12.6977 21.2655 12.8148C21.2171 12.9319 21.146 13.0383 21.0564 13.1279C20.9668 13.2175 20.8604 13.2886 20.7433 13.337C20.6262 13.3854 20.5007 13.4103 20.3739 13.4101Z" fill="#555555"/>
<defs>
<linearGradient id="paint0_linear_2_1100" x1="16.5" y1="0.221191" x2="16.5" y2="32.4212" gradientUnits="userSpaceOnUse">
<stop stop-color="#FEFEFF" stop-opacity="0.29"/>
<stop offset="1" stop-color="white" stop-opacity="0.4"/>
</linearGradient>
<linearGradient id="paint1_linear_2_1100" x1="-1.14448" y1="2.38056" x2="35.9021" y2="7.0095" gradientUnits="userSpaceOnUse">
<stop stop-color="white" stop-opacity="0.08"/>
<stop offset="1" stop-color="white" stop-opacity="0.07"/>
</linearGradient>
</defs>
</svg>
