<svg width="33" height="33" viewBox="0 0 33 33" fill="none" xmlns="http://www.w3.org/2000/svg">
<circle cx="16.7" cy="16.3212" r="15.6" fill="url(#paint0_linear_2_1103)" fill-opacity="0.05" stroke="url(#paint1_linear_2_1103)"/>
<path d="M9.92117 13.9266C9.92117 13.1939 10.0493 12.5017 10.3017 11.8556C10.5428 11.2281 10.9011 10.6522 11.3574 10.1585C11.8128 9.67137 12.3339 9.25011 12.9057 8.90692C13.4923 8.55201 14.1275 8.28426 14.7911 8.11206C15.4628 7.93568 16.1545 7.84673 16.8489 7.84742C17.9216 7.84742 18.9199 8.07439 19.8457 8.52644C20.7594 8.97025 21.5371 9.65135 22.0975 10.4985C22.6757 11.3603 22.963 12.335 22.963 13.4218C22.963 14.0735 22.8989 14.7111 22.768 15.3346C22.6395 15.9577 22.4352 16.5627 22.1596 17.1362C21.897 17.6913 21.5536 18.2045 21.1406 18.6591C20.7256 19.1064 20.2229 19.4635 19.6639 19.7082C19.057 19.9742 18.4005 20.1081 17.738 20.1009C17.2774 20.1009 16.8178 19.9926 16.3639 19.7751C15.91 19.5585 15.5841 19.2609 15.3882 18.8794C15.3195 19.1441 15.2253 19.5265 15.1 20.0265C14.9795 20.5257 14.8985 20.8478 14.8627 20.9937C14.825 21.1388 14.7553 21.3808 14.6536 21.7161C14.5846 21.9641 14.4962 22.2063 14.389 22.4403L14.065 23.0751C13.9249 23.3475 13.7683 23.611 13.596 23.8643C13.4255 24.111 13.2146 24.4058 12.9631 24.7449L12.8228 24.7948L12.7296 24.6931C12.6288 23.626 12.577 22.9875 12.577 22.7765C12.577 22.1521 12.6514 21.4515 12.7983 20.6735C12.9424 19.8966 13.1703 18.9199 13.4764 17.7455C13.7825 16.5721 13.9576 15.8818 14.0047 15.6774C13.7891 15.2376 13.6798 14.6631 13.6798 13.9568C13.6798 13.3926 13.8559 12.8643 14.2091 12.367C14.5632 11.8716 15.0106 11.624 15.553 11.624C15.9684 11.624 16.2904 11.7615 16.5212 12.0374C16.7529 12.3124 16.8659 12.659 16.8659 13.0818C16.8659 13.5301 16.7171 14.179 16.4176 15.0276C16.1181 15.877 15.9693 16.5109 15.9693 16.9318C15.9693 17.3585 16.1219 17.7154 16.427 17.9951C16.7281 18.275 17.1264 18.4266 17.5374 18.418C17.9103 18.418 18.2559 18.3332 18.5771 18.1628C18.8932 17.9973 19.1669 17.761 19.3767 17.4724C19.8336 16.8455 20.1594 16.1328 20.3345 15.377C20.4249 14.9795 20.4946 14.6019 20.5379 14.2468C20.584 13.8899 20.6038 13.5527 20.6038 13.2325C20.6038 12.0581 20.2309 11.1427 19.4897 10.4872C18.7447 9.83175 17.7747 9.50589 16.5815 9.50589C15.2243 9.50589 14.0895 9.94476 13.1807 10.8253C12.2709 11.7031 11.8132 12.8191 11.8132 14.1724C11.8132 14.471 11.8584 14.7592 11.9441 15.0379C12.0279 15.3157 12.1193 15.5371 12.2182 15.7009C12.3161 15.862 12.4084 16.0193 12.4922 16.1643C12.577 16.3093 12.6213 16.4129 12.6213 16.4751C12.6213 16.6653 12.5713 16.913 12.4706 17.2191C12.366 17.5252 12.2427 17.6777 12.0939 17.6777C12.0797 17.6777 12.0213 17.6674 11.9196 17.6457C11.5674 17.5405 11.2493 17.344 10.9976 17.0759C10.7306 16.7982 10.5198 16.4713 10.377 16.1134C10.2346 15.7568 10.1237 15.3884 10.0455 15.0125C9.96104 14.6568 9.91931 14.2922 9.92117 13.9266Z" fill="#555555"/>
<defs>
<linearGradient id="paint0_linear_2_1103" x1="16.7" y1="0.221191" x2="16.7" y2="32.4212" gradientUnits="userSpaceOnUse">
<stop stop-color="#FEFEFF" stop-opacity="0.29"/>
<stop offset="1" stop-color="white" stop-opacity="0.4"/>
</linearGradient>
<linearGradient id="paint1_linear_2_1103" x1="-0.944471" y1="2.38056" x2="36.1021" y2="7.0095" gradientUnits="userSpaceOnUse">
<stop stop-color="white" stop-opacity="0.08"/>
<stop offset="1" stop-color="white" stop-opacity="0.07"/>
</linearGradient>
</defs>
</svg>
