<svg width="46" height="21" viewBox="0 0 46 21" fill="none" xmlns="http://www.w3.org/2000/svg">
<path d="M0.971223 0H45.6475V15.4196C45.6475 18.181 43.4089 20.4196 40.6475 20.4196H0.971223V0Z" fill="#7AC751"/>
<path d="M14.8505 14.0684C14.1865 14.0684 13.5785 13.9804 13.0265 13.8044C12.4825 13.6284 12.0105 13.3644 11.6105 13.0124L12.0545 12.1004C12.4705 12.4364 12.9025 12.6804 13.3505 12.8324C13.7985 12.9844 14.3025 13.0604 14.8625 13.0604C15.5025 13.0604 15.9985 12.9404 16.3505 12.7004C16.7025 12.4604 16.8785 12.1204 16.8785 11.6804C16.8785 11.3124 16.7145 11.0364 16.3865 10.8524C16.0585 10.6604 15.5385 10.4844 14.8265 10.3244C14.1465 10.1804 13.5905 10.0164 13.1585 9.83241C12.7265 9.64041 12.3865 9.38841 12.1385 9.07641C11.8905 8.75641 11.7665 8.34841 11.7665 7.85241C11.7665 7.35641 11.8985 6.92041 12.1625 6.54441C12.4265 6.16041 12.7985 5.86441 13.2785 5.65641C13.7665 5.44041 14.3265 5.33241 14.9585 5.33241C15.5585 5.33241 16.1185 5.42441 16.6385 5.60841C17.1665 5.79241 17.6065 6.05241 17.9585 6.38841L17.5145 7.30041C17.1225 6.97241 16.7185 6.73241 16.3025 6.58041C15.8865 6.42041 15.4425 6.34041 14.9705 6.34041C14.3545 6.34041 13.8705 6.47241 13.5185 6.73641C13.1665 6.99241 12.9905 7.34441 12.9905 7.79241C12.9905 8.17641 13.1425 8.46841 13.4465 8.66841C13.7585 8.86841 14.2545 9.04841 14.9345 9.20841C15.6465 9.36841 16.2225 9.53641 16.6625 9.71241C17.1025 9.88841 17.4545 10.1284 17.7185 10.4324C17.9825 10.7364 18.1145 11.1284 18.1145 11.6084C18.1145 12.1044 17.9825 12.5364 17.7185 12.9044C17.4545 13.2724 17.0745 13.5604 16.5785 13.7684C16.0905 13.9684 15.5145 14.0684 14.8505 14.0684ZM25.1682 7.92441V13.9724H23.9682V12.9404C23.7922 13.3004 23.5282 13.5764 23.1762 13.7684C22.8322 13.9604 22.4282 14.0564 21.9642 14.0564C21.4282 14.0564 20.9562 13.9284 20.5482 13.6724C20.1482 13.4164 19.8362 13.0564 19.6122 12.5924C19.3882 12.1204 19.2762 11.5724 19.2762 10.9484C19.2762 10.3244 19.3882 9.77241 19.6122 9.29241C19.8442 8.81241 20.1642 8.44041 20.5722 8.17641C20.9802 7.91241 21.4442 7.78041 21.9642 7.78041C22.4282 7.78041 22.8322 7.88041 23.1762 8.08041C23.5202 8.27241 23.7842 8.54841 23.9682 8.90841V7.92441H25.1682ZM22.2522 13.0964C22.7962 13.0964 23.2162 12.9084 23.5122 12.5324C23.8162 12.1484 23.9682 11.6124 23.9682 10.9244C23.9682 10.2284 23.8162 9.69241 23.5122 9.31641C23.2162 8.94041 22.7922 8.75241 22.2402 8.75241C21.6962 8.75241 21.2682 8.94841 20.9562 9.34041C20.6522 9.72441 20.5002 10.2604 20.5002 10.9484C20.5002 11.6284 20.6522 12.1564 20.9562 12.5324C21.2682 12.9084 21.7002 13.0964 22.2522 13.0964ZM27.0447 5.14041H28.2447V13.9724H27.0447V5.14041ZM35.2773 10.9724H30.9573C30.9973 12.3884 31.6413 13.0964 32.8893 13.0964C33.5853 13.0964 34.2213 12.8684 34.7973 12.4124L35.1693 13.2764C34.8973 13.5164 34.5493 13.7084 34.1253 13.8524C33.7093 13.9884 33.2893 14.0564 32.8653 14.0564C31.8973 14.0564 31.1373 13.7804 30.5853 13.2284C30.0333 12.6684 29.7573 11.9044 29.7573 10.9364C29.7573 10.3204 29.8773 9.77241 30.1173 9.29241C30.3653 8.81241 30.7093 8.44041 31.1493 8.17641C31.5893 7.91241 32.0893 7.78041 32.6493 7.78041C33.4653 7.78041 34.1053 8.04441 34.5693 8.57241C35.0413 9.10041 35.2773 9.83241 35.2773 10.7684V10.9724ZM32.6733 8.68041C32.2173 8.68041 31.8453 8.81641 31.5573 9.08841C31.2693 9.36041 31.0853 9.74841 31.0053 10.2524H34.2093C34.1613 9.74041 34.0053 9.35241 33.7413 9.08841C33.4773 8.81641 33.1213 8.68041 32.6733 8.68041Z" fill="white"/>
</svg>
