<svg width="20" height="21" viewBox="0 0 20 21" fill="none" xmlns="http://www.w3.org/2000/svg">
<path d="M18.6798 16.1669H17.0611V14.5463C17.0611 14.3314 16.9758 14.1253 16.8241 13.9733C16.6723 13.8213 16.4664 13.736 16.2518 13.736C16.0371 13.736 15.8312 13.8213 15.6795 13.9733C15.5277 14.1253 15.4424 14.3314 15.4424 14.5463V16.1669H13.8237C13.609 16.1669 13.4032 16.2522 13.2514 16.4042C13.0996 16.5562 13.0143 16.7623 13.0143 16.9772C13.0143 17.1921 13.0996 17.3982 13.2514 17.5501C13.4032 17.7021 13.609 17.7875 13.8237 17.7875H15.4424V19.4081C15.4424 19.623 15.5277 19.8291 15.6795 19.981C15.8312 20.133 16.0371 20.2184 16.2518 20.2184C16.4664 20.2184 16.6723 20.133 16.8241 19.981C16.9758 19.8291 17.0611 19.623 17.0611 19.4081V17.7875H18.6798C18.8945 17.7875 19.1003 17.7021 19.2521 17.5501C19.4039 17.3982 19.4892 17.1921 19.4892 16.9772C19.4892 16.7623 19.4039 16.5562 19.2521 16.4042C19.1003 16.2522 18.8945 16.1669 18.6798 16.1669Z" fill="white"/>
<path d="M17.0611 5.63296H14.6331C14.6331 4.34353 14.1214 3.10691 13.2108 2.19514C12.3001 1.28337 11.0649 0.771149 9.77696 0.771149C8.48904 0.771149 7.25386 1.28337 6.34317 2.19514C5.43247 3.10691 4.92084 4.34353 4.92084 5.63296H2.49279C1.84882 5.63296 1.23124 5.88907 0.775889 6.34495C0.32054 6.80084 0.0647278 7.41915 0.0647278 8.06386L0.0647278 16.1669C0.0660129 17.241 0.49278 18.2708 1.25142 19.0303C2.01005 19.7898 3.03862 20.2171 4.11149 20.2184H11.3957C11.6103 20.2184 11.8162 20.133 11.968 19.9811C12.1197 19.8291 12.205 19.623 12.205 19.4081C12.205 19.1932 12.1197 18.9871 11.968 18.8351C11.8162 18.6832 11.6103 18.5978 11.3957 18.5978H4.11149C3.46753 18.5978 2.84994 18.3417 2.39459 17.8858C1.93925 17.4299 1.68343 16.8116 1.68343 16.1669V8.06386C1.68343 7.84896 1.7687 7.64285 1.92049 7.49089C2.07227 7.33893 2.27813 7.25356 2.49279 7.25356H4.92084V8.87416C4.92084 9.08907 5.00611 9.29517 5.1579 9.44713C5.30968 9.59909 5.51554 9.68447 5.7302 9.68447C5.94485 9.68447 6.15071 9.59909 6.30249 9.44713C6.45428 9.29517 6.53955 9.08907 6.53955 8.87416V7.25356H13.0144V8.87416C13.0144 9.08907 13.0996 9.29517 13.2514 9.44713C13.4032 9.59909 13.6091 9.68447 13.8237 9.68447C14.0384 9.68447 14.2442 9.59909 14.396 9.44713C14.5478 9.29517 14.6331 9.08907 14.6331 8.87416V7.25356H17.0611C17.2758 7.25356 17.4816 7.33893 17.6334 7.49089C17.7852 7.64285 17.8705 7.84896 17.8705 8.06386V12.1154C17.8705 12.3303 17.9558 12.5364 18.1075 12.6883C18.2593 12.8403 18.4652 12.9257 18.6798 12.9257C18.8945 12.9257 19.1004 12.8403 19.2521 12.6883C19.4039 12.5364 19.4892 12.3303 19.4892 12.1154V8.06386C19.4892 7.41915 19.2334 6.80084 18.778 6.34495C18.3227 5.88907 17.7051 5.63296 17.0611 5.63296ZM6.53955 5.63296C6.53955 4.77334 6.88063 3.94892 7.48776 3.34108C8.0949 2.73324 8.91834 2.39175 9.77696 2.39175C10.6356 2.39175 11.459 2.73324 12.0662 3.34108C12.6733 3.94892 13.0144 4.77334 13.0144 5.63296H6.53955Z" fill="white"/>
</svg>
