<svg width="12" height="11" viewBox="0 0 12 11" fill="none" xmlns="http://www.w3.org/2000/svg">
<path d="M4.04296 3.85733L4.35032 3.81471L4.49319 3.53926L5.77806 1.06195C5.77808 1.06191 5.7781 1.06187 5.77812 1.06183C5.77967 1.05886 5.78044 1.0583 5.78003 1.05872C5.77976 1.05899 5.77996 1.05866 5.78136 1.05787C5.78487 1.0559 5.7945 1.0521 5.80918 1.05215C5.82392 1.05219 5.83444 1.0561 5.83912 1.05874L5.84109 1.06001L5.84152 1.06037L5.84156 1.06042L5.84173 1.06064L5.84303 1.06282L5.84305 1.06284L7.12745 3.53926L7.27031 3.81471L7.57768 3.85733L10.4527 4.2559L10.4531 4.25596C10.4559 4.25634 10.4583 4.25678 10.4604 4.25724L8.39556 6.17058L8.1545 6.39396L8.21294 6.71737L8.70218 9.42506C8.69483 9.42955 8.68598 9.43251 8.67767 9.43324C8.67052 9.43387 8.66228 9.43316 8.65061 9.42733L8.65052 9.42728L6.07858 8.14173L5.81032 8.00764L5.54206 8.14173L2.97012 9.42728L2.96827 9.42821C2.95682 9.43398 2.94906 9.43456 2.94251 9.43399C2.9345 9.43329 2.92571 9.43035 2.91833 9.42572L3.4077 6.71737L3.46614 6.39396L3.22507 6.17058L1.16025 4.25724C1.16235 4.25678 1.16478 4.25634 1.16756 4.25596L1.16797 4.2559L4.04296 3.85733ZM8.70491 9.44004L9.29533 9.33336C9.38388 9.8255 8.8388 10.1923 8.38226 9.96397L8.70491 9.44004Z" fill="white" stroke="#CCCCCC" stroke-width="1.2"/>
</svg>
