<svg width="58" height="58" viewBox="0 0 58 58" fill="none" xmlns="http://www.w3.org/2000/svg">
<path d="M49.9608 23.9752H49.8172V20.4579C49.8172 9.15933 40.658 0 29.3593 0C18.0606 0 8.90141 9.15933 8.90141 20.4579V23.9752H8.04008C4.88163 23.9752 2.44108 26.7747 2.44108 30.005V38.9777C2.36152 42.1086 4.83519 44.7111 7.96602 44.7907C7.99075 44.7913 8.01535 44.7918 8.04008 44.792H13.3519C14.1043 44.7567 14.6856 44.118 14.6502 43.3656C14.6489 43.3385 14.6469 43.3115 14.644 43.2845V25.6979C14.644 24.8366 14.1415 23.9751 13.3519 23.9751H11.7727V20.4578C11.7727 10.745 19.6466 2.87115 29.3593 2.87115C39.0721 2.87115 46.9459 10.745 46.9459 20.4578V23.9751H45.3667C44.5771 23.9751 44.0747 24.8364 44.0747 25.6979V43.2845C43.9946 44.0335 44.5367 44.7056 45.2857 44.7857C45.3126 44.7886 45.3397 44.7907 45.3667 44.7919H47.0177L46.8741 45.0072C44.7201 47.8698 41.3402 49.5465 37.7578 49.5294C36.9735 45.6839 33.2201 43.2021 29.3746 43.9865C26.086 44.6571 23.715 47.5372 23.6885 50.8934C23.7278 54.8297 26.9302 58 30.8667 57.9997C32.8154 57.9681 34.6728 57.1685 36.035 55.7745C36.954 54.8333 37.5562 53.6288 37.7578 52.3289C42.244 52.3459 46.4748 50.2437 49.1711 46.6581L50.535 44.6482C53.6216 44.4329 55.5597 42.4948 55.5597 39.6952V30.7225C55.5598 27.6361 53.2628 23.9752 49.9608 23.9752ZM11.7727 41.9207H8.04008C6.49438 41.8831 5.27183 40.5997 5.30948 39.054C5.31017 39.0286 5.31113 39.0031 5.31237 38.9776V30.0048C5.31237 28.3539 6.46086 26.8464 8.04008 26.8464H11.7727V41.9207ZM33.9534 53.7648C33.1579 54.6273 32.0402 55.1213 30.8668 55.1287C28.5314 55.0916 26.6361 53.228 26.5599 50.8935C26.5589 48.5545 28.4543 46.6576 30.7933 46.6566C33.1323 46.6557 35.0292 48.551 35.0302 50.8901C35.0302 50.8912 35.0302 50.8924 35.0302 50.8935C35.09 51.9593 34.6992 53.0011 33.9534 53.7648ZM52.6885 39.6955C52.6885 41.6336 50.8222 41.9207 49.9608 41.9207H46.9459V26.8465H49.9608C51.54 26.8465 52.6885 29.0718 52.6885 30.7227V39.6955Z" fill="#7AC751"/>
</svg>
