<svg width="81" height="24" viewBox="0 0 81 24" fill="none" xmlns="http://www.w3.org/2000/svg">
<path fill-rule="evenodd" clip-rule="evenodd" d="M0.000322412 3.00012C0.000322412 1.34327 1.34347 0.00012128 3.00032 0.00012128H72.0003C73.6572 0.00012128 75.0003 1.34327 75.0003 3.00012V21C75.0003 22.6569 73.6572 24 72.0003 24H3.00032C1.34347 24 0.000322412 22.6569 0.000322412 21V3.00012Z" fill="#F8FAFB"/>
<path d="M29.1103 17.1333V9.7653H26.6263V8.7333H32.8543V9.7653H30.3823V17.1333H29.1103ZM32.6866 17.1333L35.7826 8.7333H37.1746L40.2466 17.1333H38.9026L38.1826 15.0813H34.7506L34.0306 17.1333H32.6866ZM35.1106 14.0733H37.8226L36.4666 10.2453L35.1106 14.0733ZM41.514 17.1333V8.7333H44.682C45.554 8.7333 46.214 8.9373 46.662 9.3453C47.11 9.7533 47.334 10.2653 47.334 10.8813C47.334 11.4173 47.19 11.8453 46.902 12.1653C46.614 12.4773 46.266 12.6893 45.858 12.8013C46.178 12.8653 46.462 12.9933 46.71 13.1853C46.966 13.3773 47.166 13.6173 47.31 13.9053C47.454 14.1933 47.526 14.5053 47.526 14.8413C47.526 15.2733 47.418 15.6653 47.202 16.0173C46.994 16.3613 46.686 16.6333 46.278 16.8333C45.87 17.0333 45.37 17.1333 44.778 17.1333H41.514ZM42.786 12.3333H44.526C45.014 12.3333 45.386 12.2213 45.642 11.9973C45.898 11.7653 46.026 11.4493 46.026 11.0493C46.026 10.6573 45.898 10.3453 45.642 10.1133C45.394 9.8813 45.014 9.7653 44.502 9.7653H42.786V12.3333ZM42.786 16.0893H44.61C45.122 16.0893 45.518 15.9693 45.798 15.7293C46.086 15.4893 46.23 15.1533 46.23 14.7213C46.23 14.2893 46.082 13.9493 45.786 13.7013C45.49 13.4453 45.09 13.3173 44.586 13.3173H42.786V16.0893ZM49.0162 17.1333V8.7333H50.2882V16.1253H54.1042V17.1333H49.0162ZM55.5693 17.1333V8.7333H60.9093V9.7653H56.8413V12.3813H60.5493V13.3893H56.8413V16.1013H60.9093V17.1333H55.5693Z" fill="#7AC751"/>
<path fill-rule="evenodd" clip-rule="evenodd" d="M14.1821 5.46509C14.7008 5.46509 15.1978 5.67336 15.5647 6.04467L21.1415 11.6894C21.3232 11.8732 21.4673 12.0914 21.5656 12.3315C21.6639 12.5717 21.7145 12.8291 21.7145 13.0891C21.7145 13.3491 21.6639 13.6065 21.5656 13.8467C21.4673 14.0868 21.3232 14.305 21.1415 14.4888L17.481 18.1938C17.2995 18.3777 17.0839 18.5236 16.8466 18.6231C16.6093 18.7226 16.355 18.7738 16.0982 18.7738C15.8413 18.7738 15.587 18.7226 15.3497 18.6231C15.1124 18.5236 14.8969 18.3777 14.7153 18.1938L9.13847 12.5491C8.95692 12.3653 8.81291 12.1472 8.71466 11.9071C8.61642 11.667 8.56585 11.4096 8.56586 11.1497V7.44404C8.56586 6.91919 8.77185 6.41583 9.13851 6.04471C9.50517 5.67358 10.0025 5.46509 10.521 5.46509H14.1821ZM14.1821 6.79592H10.521C10.3512 6.79592 10.1883 6.8642 10.0682 6.98575C9.94815 7.1073 9.88069 7.27215 9.88069 7.44404V11.1497C9.88069 11.3214 9.9484 11.4864 10.0681 11.6082L15.6449 17.2529C15.8947 17.5058 16.301 17.5058 16.5508 17.2529L20.2119 13.5472C20.2714 13.4871 20.3187 13.4156 20.3509 13.3369C20.3831 13.2582 20.3997 13.1739 20.3997 13.0888C20.3997 13.0036 20.3831 12.9193 20.3509 12.8406C20.3187 12.762 20.2714 12.6905 20.2119 12.6303L14.6351 6.98557C14.5755 6.92531 14.5048 6.87755 14.427 6.84501C14.3491 6.81247 14.2657 6.79579 14.1815 6.79592H14.1821ZM12.5103 8.12676C12.8591 8.12676 13.1935 8.26697 13.4401 8.51655C13.6866 8.76613 13.8252 9.10463 13.8252 9.45759C13.8252 9.81055 13.6866 10.1491 13.4401 10.3986C13.1935 10.6482 12.8591 10.7884 12.5103 10.7884C12.1616 10.7884 11.8272 10.6482 11.5806 10.3986C11.334 10.1491 11.1955 9.81055 11.1955 9.45759C11.1955 9.10463 11.334 8.76613 11.5806 8.51655C11.8272 8.26697 12.1616 8.12676 12.5103 8.12676Z" fill="#7AC751"/>
</svg>
