<svg width="84" height="25" viewBox="0 0 84 25" fill="none" xmlns="http://www.w3.org/2000/svg">
<path fill-rule="evenodd" clip-rule="evenodd" d="M0.375946 3.46741C0.375946 1.81055 1.71909 0.467406 3.37595 0.467406H80.2099C81.8668 0.467406 83.2099 1.81055 83.2099 3.46741V21.4223C83.2099 23.0791 81.8668 24.4223 80.2099 24.4223H3.37595C1.71909 24.4223 0.375946 23.0791 0.375946 21.4223V3.46741Z" fill="#F8FAFB"/>
<path d="M33.2856 17.6025C32.4536 17.6025 31.7336 17.4225 31.1256 17.0625C30.5256 16.6945 30.0616 16.1865 29.7336 15.5385C29.4056 14.8825 29.2416 14.1265 29.2416 13.2705C29.2416 12.4065 29.4056 11.6505 29.7336 11.0025C30.0616 10.3465 30.5256 9.8345 31.1256 9.4665C31.7336 9.0985 32.4536 8.9145 33.2856 8.9145C34.2696 8.9145 35.0736 9.1545 35.6976 9.6345C36.3216 10.1145 36.7176 10.7865 36.8856 11.6505H35.4696C35.3576 11.1625 35.1176 10.7745 34.7496 10.4865C34.3816 10.1985 33.8896 10.0545 33.2736 10.0545C32.4336 10.0545 31.7696 10.3425 31.2816 10.9185C30.7936 11.4865 30.5496 12.2705 30.5496 13.2705C30.5496 14.2625 30.7936 15.0425 31.2816 15.6105C31.7696 16.1785 32.4336 16.4625 33.2736 16.4625C33.8896 16.4625 34.3816 16.3265 34.7496 16.0545C35.1176 15.7825 35.3576 15.4105 35.4696 14.9385H36.8856C36.7176 15.7705 36.3216 16.4225 35.6976 16.8945C35.0736 17.3665 34.2696 17.6025 33.2856 17.6025ZM38.3798 17.4585V9.0585H39.6518V12.6585H43.7198V9.0585H44.9918V17.4585H43.7198V13.7025H39.6518V17.4585H38.3798ZM46.2561 17.4585L49.3521 9.0585H50.7441L53.8161 17.4585H52.4721L51.7521 15.4065H48.3201L47.6001 17.4585H46.2561ZM48.6801 14.3985H51.3921L50.0361 10.5705L48.6801 14.3985ZM55.0835 17.4585V9.0585H56.3555V17.4585H55.0835ZM58.1561 17.4585V9.0585H61.0481C61.7121 9.0585 62.2561 9.1705 62.6801 9.3945C63.1121 9.6185 63.4321 9.9225 63.6401 10.3065C63.8481 10.6825 63.9521 11.1025 63.9521 11.5665C63.9521 12.0865 63.8121 12.5585 63.5321 12.9825C63.2601 13.4065 62.8321 13.7105 62.2481 13.8945L64.0361 17.4585H62.5601L60.9281 14.0745H59.4281V17.4585H58.1561ZM59.4281 13.1145H60.9761C61.5521 13.1145 61.9721 12.9745 62.2361 12.6945C62.5081 12.4145 62.6441 12.0505 62.6441 11.6025C62.6441 11.1545 62.5121 10.7985 62.2481 10.5345C61.9841 10.2625 61.5561 10.1265 60.9641 10.1265H59.4281V13.1145Z" fill="#7AC751"/>
<path fill-rule="evenodd" clip-rule="evenodd" d="M14.2094 5.79126C14.7281 5.79126 15.2251 5.99954 15.592 6.37084L21.1688 12.0156C21.3505 12.1993 21.4946 12.4176 21.5929 12.6577C21.6912 12.8979 21.7418 13.1553 21.7418 13.4153C21.7418 13.6752 21.6912 13.9327 21.5929 14.1728C21.4946 14.413 21.3505 14.6312 21.1688 14.815L17.5083 18.52C17.3268 18.7039 17.1112 18.8498 16.8739 18.9493C16.6366 19.0488 16.3823 19.1 16.1255 19.1C15.8686 19.1 15.6143 19.0488 15.377 18.9493C15.1397 18.8498 14.9242 18.7039 14.7426 18.52L9.16575 12.8753C8.9842 12.6915 8.84019 12.4734 8.74195 12.2332C8.6437 11.9931 8.59314 11.7358 8.59315 11.4759V7.77021C8.59315 7.24536 8.79914 6.74201 9.1658 6.37088C9.53246 5.99976 10.0298 5.79126 10.5483 5.79126H14.2094ZM14.2094 7.12209H10.5483C10.3785 7.12209 10.2156 7.19038 10.0955 7.31192C9.97543 7.43347 9.90797 7.59832 9.90797 7.77021V11.4759C9.90797 11.6476 9.97569 11.8126 10.0953 11.9344L15.6722 17.5791C15.922 17.832 16.3283 17.832 16.5781 17.5791L20.2392 13.8734C20.2987 13.8132 20.3459 13.7418 20.3781 13.6631C20.4104 13.5844 20.4269 13.5001 20.4269 13.4149C20.4269 13.3298 20.4104 13.2455 20.3781 13.1668C20.3459 13.0881 20.2987 13.0167 20.2392 12.9565L14.6624 7.31174C14.6028 7.25149 14.5321 7.20372 14.4542 7.17118C14.3764 7.13864 14.293 7.12196 14.2088 7.12209H14.2094ZM12.5376 8.45293C12.8863 8.45293 13.2208 8.59314 13.4673 8.84272C13.7139 9.0923 13.8524 9.4308 13.8524 9.78376C13.8524 10.1367 13.7139 10.4752 13.4673 10.7248C13.2208 10.9744 12.8863 11.1146 12.5376 11.1146C12.1889 11.1146 11.8545 10.9744 11.6079 10.7248C11.3613 10.4752 11.2228 10.1367 11.2228 9.78376C11.2228 9.4308 11.3613 9.0923 11.6079 8.84272C11.8545 8.59314 12.1889 8.45293 12.5376 8.45293Z" fill="#7AC751"/>
</svg>
