<svg width="84" height="25" viewBox="0 0 84 25" fill="none" xmlns="http://www.w3.org/2000/svg">
<path fill-rule="evenodd" clip-rule="evenodd" d="M0.37593 3.46741C0.37593 1.81055 1.71908 0.467406 3.37593 0.467406H80.2099C81.8668 0.467406 83.2099 1.81055 83.2099 3.46741V21.4223C83.2099 23.0791 81.8668 24.4223 80.2099 24.4223H3.37593C1.71908 24.4223 0.37593 23.0791 0.37593 21.4223V3.46741Z" fill="#F8FAFB"/>
<path d="M29.4147 17.4585V9.0585H32.5827C33.4547 9.0585 34.1147 9.2625 34.5627 9.6705C35.0107 10.0785 35.2347 10.5905 35.2347 11.2065C35.2347 11.7425 35.0907 12.1705 34.8027 12.4905C34.5147 12.8025 34.1667 13.0145 33.7587 13.1265C34.0787 13.1905 34.3627 13.3185 34.6107 13.5105C34.8667 13.7025 35.0667 13.9425 35.2107 14.2305C35.3547 14.5185 35.4267 14.8305 35.4267 15.1665C35.4267 15.5985 35.3187 15.9905 35.1027 16.3425C34.8947 16.6865 34.5867 16.9585 34.1787 17.1585C33.7707 17.3585 33.2707 17.4585 32.6787 17.4585H29.4147ZM30.6867 12.6585H32.4267C32.9147 12.6585 33.2867 12.5465 33.5427 12.3225C33.7987 12.0905 33.9267 11.7745 33.9267 11.3745C33.9267 10.9825 33.7987 10.6705 33.5427 10.4385C33.2947 10.2065 32.9147 10.0905 32.4027 10.0905H30.6867V12.6585ZM30.6867 16.4145H32.5107C33.0227 16.4145 33.4187 16.2945 33.6987 16.0545C33.9867 15.8145 34.1307 15.4785 34.1307 15.0465C34.1307 14.6145 33.9827 14.2745 33.6867 14.0265C33.3907 13.7705 32.9907 13.6425 32.4867 13.6425H30.6867V16.4145ZM36.9169 17.4585V9.0585H42.2569V10.0905H38.1889V12.7065H41.8969V13.7145H38.1889V16.4265H42.2569V17.4585H36.9169ZM43.8684 17.4585V9.0585H45.1404L49.3524 15.3825V9.0585H50.6244V17.4585H49.3524L45.1404 11.1345V17.4585H43.8684ZM56.1693 17.6025C55.3373 17.6025 54.6173 17.4225 54.0093 17.0625C53.4093 16.6945 52.9453 16.1865 52.6173 15.5385C52.2893 14.8825 52.1253 14.1265 52.1253 13.2705C52.1253 12.4065 52.2893 11.6505 52.6173 11.0025C52.9453 10.3465 53.4093 9.8345 54.0093 9.4665C54.6173 9.0985 55.3373 8.9145 56.1693 8.9145C57.1533 8.9145 57.9573 9.1545 58.5813 9.6345C59.2053 10.1145 59.6013 10.7865 59.7693 11.6505H58.3533C58.2413 11.1625 58.0013 10.7745 57.6333 10.4865C57.2653 10.1985 56.7733 10.0545 56.1573 10.0545C55.3173 10.0545 54.6533 10.3425 54.1653 10.9185C53.6773 11.4865 53.4333 12.2705 53.4333 13.2705C53.4333 14.2625 53.6773 15.0425 54.1653 15.6105C54.6533 16.1785 55.3173 16.4625 56.1573 16.4625C56.7733 16.4625 57.2653 16.3265 57.6333 16.0545C58.0013 15.7825 58.2413 15.4105 58.3533 14.9385H59.7693C59.6013 15.7705 59.2053 16.4225 58.5813 16.8945C57.9573 17.3665 57.1533 17.6025 56.1693 17.6025ZM61.2635 17.4585V9.0585H62.5355V12.6585H66.6035V9.0585H67.8755V17.4585H66.6035V13.7025H62.5355V17.4585H61.2635Z" fill="#7AC751"/>
<path fill-rule="evenodd" clip-rule="evenodd" d="M14.2094 5.79126C14.7281 5.79126 15.2251 5.99954 15.592 6.37084L21.1688 12.0156C21.3504 12.1993 21.4946 12.4176 21.5929 12.6577C21.6912 12.8979 21.7418 13.1553 21.7418 13.4153C21.7418 13.6752 21.6912 13.9327 21.5929 14.1728C21.4946 14.413 21.3504 14.6312 21.1688 14.815L17.5083 18.52C17.3267 18.7039 17.1112 18.8498 16.8739 18.9493C16.6366 19.0488 16.3823 19.1 16.1254 19.1C15.8686 19.1 15.6143 19.0488 15.377 18.9493C15.1397 18.8498 14.9241 18.7039 14.7426 18.52L9.16575 12.8753C8.9842 12.6915 8.84019 12.4734 8.74194 12.2332C8.64369 11.9931 8.59313 11.7358 8.59314 11.4759V7.77021C8.59314 7.24536 8.79913 6.74201 9.16579 6.37088C9.53245 5.99976 10.0297 5.79126 10.5483 5.79126H14.2094ZM14.2094 7.12209H10.5483C10.3785 7.12209 10.2156 7.19038 10.0955 7.31192C9.97543 7.43347 9.90796 7.59832 9.90796 7.77021V11.4759C9.90796 11.6476 9.97568 11.8126 10.0953 11.9344L15.6722 17.5791C15.922 17.832 16.3283 17.832 16.5781 17.5791L20.2392 13.8734C20.2987 13.8132 20.3459 13.7418 20.3781 13.6631C20.4104 13.5844 20.4269 13.5001 20.4269 13.4149C20.4269 13.3298 20.4104 13.2455 20.3781 13.1668C20.3459 13.0881 20.2987 13.0167 20.2392 12.9565L14.6624 7.31174C14.6028 7.25149 14.5321 7.20372 14.4542 7.17118C14.3764 7.13864 14.293 7.12196 14.2088 7.12209H14.2094ZM12.5376 8.45293C12.8863 8.45293 13.2208 8.59314 13.4673 8.84272C13.7139 9.0923 13.8524 9.4308 13.8524 9.78376C13.8524 10.1367 13.7139 10.4752 13.4673 10.7248C13.2208 10.9744 12.8863 11.1146 12.5376 11.1146C12.1889 11.1146 11.8545 10.9744 11.6079 10.7248C11.3613 10.4752 11.2228 10.1367 11.2228 9.78376C11.2228 9.4308 11.3613 9.0923 11.6079 8.84272C11.8545 8.59314 12.1889 8.45293 12.5376 8.45293Z" fill="#7AC751"/>
</svg>
