<svg width="100" height="25" viewBox="0 0 100 25" fill="none" xmlns="http://www.w3.org/2000/svg">
<path fill-rule="evenodd" clip-rule="evenodd" d="M0.347003 3.14172C0.347003 1.48487 1.69015 0.141723 3.347 0.141723H96.945C98.6019 0.141723 99.945 1.48487 99.945 3.14172V21.0966C99.945 22.7535 98.6019 24.0966 96.945 24.0966H3.347C1.69015 24.0966 0.347003 22.7535 0.347003 21.0966V3.14172Z" fill="#F8FAFB"/>
<path d="M28.2702 17.1333V8.7333H33.5382V9.7653H29.5422V12.4173H32.8542V13.4373H29.5422V17.1333H28.2702ZM38.0258 17.2773C37.4258 17.2773 36.8818 17.1613 36.3938 16.9293C35.9138 16.6893 35.5298 16.3253 35.2418 15.8373C34.9618 15.3493 34.8218 14.7293 34.8218 13.9773V8.7333H36.0938V13.9893C36.0938 14.7253 36.2698 15.2653 36.6218 15.6093C36.9738 15.9533 37.4498 16.1253 38.0498 16.1253C38.6418 16.1253 39.1138 15.9533 39.4658 15.6093C39.8178 15.2653 39.9938 14.7253 39.9938 13.9893V8.7333H41.2658V13.9773C41.2658 14.7293 41.1178 15.3493 40.8218 15.8373C40.5338 16.3253 40.1418 16.6893 39.6458 16.9293C39.1578 17.1613 38.6178 17.2773 38.0258 17.2773ZM42.9934 17.1333V8.7333H45.8854C46.5494 8.7333 47.0934 8.8453 47.5174 9.0693C47.9494 9.2933 48.2694 9.5973 48.4774 9.9813C48.6854 10.3573 48.7894 10.7773 48.7894 11.2413C48.7894 11.7613 48.6494 12.2333 48.3694 12.6573C48.0974 13.0813 47.6694 13.3853 47.0854 13.5693L48.8734 17.1333H47.3974L45.7654 13.7493H44.2654V17.1333H42.9934ZM44.2654 12.7893H45.8134C46.3894 12.7893 46.8094 12.6493 47.0734 12.3693C47.3454 12.0893 47.4814 11.7253 47.4814 11.2773C47.4814 10.8293 47.3494 10.4733 47.0854 10.2093C46.8214 9.9373 46.3934 9.8013 45.8014 9.8013H44.2654V12.7893ZM50.3902 17.1333V8.7333H51.6622L55.8742 15.0573V8.7333H57.1462V17.1333H55.8742L51.6622 10.8093V17.1333H50.3902ZM58.9472 17.1333V8.7333H60.2192V17.1333H58.9472ZM63.9877 17.1333V9.7653H61.5037V8.7333H67.7317V9.7653H65.2597V17.1333H63.9877ZM72.1621 17.2773C71.5621 17.2773 71.0181 17.1613 70.5301 16.9293C70.0501 16.6893 69.6661 16.3253 69.3781 15.8373C69.0981 15.3493 68.9581 14.7293 68.9581 13.9773V8.7333H70.2301V13.9893C70.2301 14.7253 70.4061 15.2653 70.7581 15.6093C71.1101 15.9533 71.5861 16.1253 72.1861 16.1253C72.7781 16.1253 73.2501 15.9533 73.6021 15.6093C73.9541 15.2653 74.1301 14.7253 74.1301 13.9893V8.7333H75.4021V13.9773C75.4021 14.7293 75.2541 15.3493 74.9581 15.8373C74.6701 16.3253 74.2781 16.6893 73.7821 16.9293C73.2941 17.1613 72.7541 17.2773 72.1621 17.2773ZM77.1297 17.1333V8.7333H80.0217C80.6857 8.7333 81.2297 8.8453 81.6537 9.0693C82.0857 9.2933 82.4057 9.5973 82.6137 9.9813C82.8217 10.3573 82.9257 10.7773 82.9257 11.2413C82.9257 11.7613 82.7857 12.2333 82.5057 12.6573C82.2337 13.0813 81.8057 13.3853 81.2217 13.5693L83.0097 17.1333H81.5337L79.9017 13.7493H78.4017V17.1333H77.1297ZM78.4017 12.7893H79.9497C80.5257 12.7893 80.9457 12.6493 81.2097 12.3693C81.4817 12.0893 81.6177 11.7253 81.6177 11.2773C81.6177 10.8293 81.4857 10.4733 81.2217 10.2093C80.9577 9.9373 80.5297 9.8013 79.9377 9.8013H78.4017V12.7893ZM84.5265 17.1333V8.7333H89.8665V9.7653H85.7985V12.3813H89.5065V13.3893H85.7985V16.1013H89.8665V17.1333H84.5265Z" fill="#7AC751"/>
<path fill-rule="evenodd" clip-rule="evenodd" d="M14.1821 5.46509C14.7008 5.46509 15.1978 5.67336 15.5646 6.04467L21.1414 11.6894C21.3231 11.8732 21.4672 12.0914 21.5655 12.3315C21.6639 12.5717 21.7145 12.8291 21.7145 13.0891C21.7145 13.3491 21.6639 13.6065 21.5655 13.8467C21.4672 14.0868 21.3231 14.305 21.1414 14.4888L17.481 18.1938C17.2994 18.3777 17.0838 18.5236 16.8465 18.6231C16.6093 18.7226 16.3549 18.7738 16.0981 18.7738C15.8413 18.7738 15.5869 18.7226 15.3497 18.6231C15.1124 18.5236 14.8968 18.3777 14.7152 18.1938L9.1384 12.5491C8.95685 12.3653 8.81284 12.1472 8.71459 11.9071C8.61635 11.667 8.56578 11.4096 8.5658 11.1497V7.44404C8.5658 6.91919 8.77178 6.41583 9.13844 6.04471C9.50511 5.67358 10.0024 5.46509 10.5209 5.46509H14.1821ZM14.1821 6.79592H10.5209C10.3511 6.79592 10.1882 6.8642 10.0682 6.98575C9.94808 7.1073 9.88062 7.27215 9.88062 7.44404V11.1497C9.88062 11.3214 9.94833 11.4864 10.068 11.6082L15.6448 17.2529C15.8946 17.5058 16.3009 17.5058 16.5507 17.2529L20.2119 13.5472C20.2714 13.4871 20.3186 13.4156 20.3508 13.3369C20.383 13.2582 20.3996 13.1739 20.3996 13.0888C20.3996 13.0036 20.383 12.9193 20.3508 12.8406C20.3186 12.762 20.2714 12.6905 20.2119 12.6303L14.635 6.98557C14.5755 6.92531 14.5047 6.87755 14.4269 6.84501C14.349 6.81247 14.2656 6.79579 14.1814 6.79592H14.1821ZM12.5103 8.12676C12.859 8.12676 13.1934 8.26697 13.44 8.51655C13.6866 8.76613 13.8251 9.10463 13.8251 9.45759C13.8251 9.81055 13.6866 10.1491 13.44 10.3986C13.1934 10.6482 12.859 10.7884 12.5103 10.7884C12.1616 10.7884 11.8271 10.6482 11.5805 10.3986C11.334 10.1491 11.1954 9.81055 11.1954 9.45759C11.1954 9.10463 11.334 8.76613 11.5805 8.51655C11.8271 8.26697 12.1616 8.12676 12.5103 8.12676Z" fill="#7AC751"/>
</svg>
