<svg width="46" height="21" viewBox="0 0 46 21" fill="none" xmlns="http://www.w3.org/2000/svg">
<path d="M0.971252 0H45.6475V15.4196C45.6475 18.181 43.4089 20.4196 40.6475 20.4196H0.971252V0Z" fill="#00B7F1"/>
<path d="M18.337 5.42841V13.9724H17.389L12.493 7.51641V13.9724H11.329V5.42841H12.265L17.173 11.8964V5.42841H18.337ZM25.477 10.9724H21.157C21.197 12.3884 21.841 13.0964 23.089 13.0964C23.785 13.0964 24.421 12.8684 24.997 12.4124L25.369 13.2764C25.097 13.5164 24.749 13.7084 24.325 13.8524C23.909 13.9884 23.489 14.0564 23.065 14.0564C22.097 14.0564 21.337 13.7804 20.785 13.2284C20.233 12.6684 19.957 11.9044 19.957 10.9364C19.957 10.3204 20.077 9.77241 20.317 9.29241C20.565 8.81241 20.909 8.44041 21.349 8.17641C21.789 7.91241 22.289 7.78041 22.849 7.78041C23.665 7.78041 24.305 8.04441 24.769 8.57241C25.241 9.10041 25.477 9.83241 25.477 10.7684V10.9724ZM22.873 8.68041C22.417 8.68041 22.045 8.81641 21.757 9.08841C21.469 9.36041 21.285 9.74841 21.205 10.2524H24.409C24.361 9.74041 24.205 9.35241 23.941 9.08841C23.677 8.81641 23.321 8.68041 22.873 8.68041ZM36.2658 7.92441L33.9618 13.9724H32.8578L31.2378 9.59241L29.6298 13.9724H28.5258L26.2218 7.92441H27.4818L29.1258 12.5444L30.7938 7.92441H31.7538L33.4218 12.5444L35.0778 7.92441H36.2658Z" fill="white"/>
</svg>
