<svg width="33" height="33" viewBox="0 0 33 33" fill="none" xmlns="http://www.w3.org/2000/svg">
<circle cx="16.3" cy="16.3212" r="15.6" fill="url(#paint0_linear_2_1097)" fill-opacity="0.05" stroke="url(#paint1_linear_2_1097)"/>
<path d="M24.7737 11.178C24.1505 11.4468 23.4723 11.6403 22.7737 11.7156C23.499 11.2848 24.0421 10.604 24.3012 9.80115C23.6206 10.206 22.875 10.4899 22.0975 10.6403C21.7725 10.2929 21.3795 10.0161 20.9429 9.82723C20.5063 9.63837 20.0355 9.54144 19.5598 9.54249C17.6351 9.54249 16.0872 11.1026 16.0872 13.0171C16.0872 13.2859 16.1198 13.5548 16.1727 13.8134C13.2908 13.6627 10.7205 12.2859 9.01171 10.1779C8.70035 10.7098 8.53719 11.3153 8.5392 11.9315C8.5392 13.1373 9.15225 14.2004 10.0871 14.8257C9.53617 14.804 8.99815 14.6526 8.5168 14.3837V14.4265C8.5168 16.1149 9.7103 17.5141 11.301 17.8359C11.0023 17.9135 10.6951 17.9532 10.3865 17.9541C10.1604 17.9541 9.94656 17.9317 9.73067 17.9011C10.1706 19.2779 11.4517 20.2779 12.9772 20.3105C11.7837 21.2454 10.2887 21.7953 8.66547 21.7953C8.37423 21.7953 8.10538 21.7851 7.82635 21.7525C9.3661 22.7403 11.193 23.3106 13.1605 23.3106C19.5476 23.3106 23.0425 18.0192 23.0425 13.4265C23.0425 13.2758 23.0425 13.125 23.0323 12.9743C23.7085 12.4794 24.3012 11.8664 24.7737 11.178Z" fill="#555555"/>
<defs>
<linearGradient id="paint0_linear_2_1097" x1="16.3" y1="0.221191" x2="16.3" y2="32.4212" gradientUnits="userSpaceOnUse">
<stop stop-color="#FEFEFF" stop-opacity="0.29"/>
<stop offset="1" stop-color="white" stop-opacity="0.4"/>
</linearGradient>
<linearGradient id="paint1_linear_2_1097" x1="-1.34446" y1="2.38056" x2="35.7022" y2="7.0095" gradientUnits="userSpaceOnUse">
<stop stop-color="white" stop-opacity="0.08"/>
<stop offset="1" stop-color="white" stop-opacity="0.07"/>
</linearGradient>
</defs>
</svg>
